<svg width="35" height="15" viewBox="0 0 35 15" fill="none" xmlns="http://www.w3.org/2000/svg">
<path d="M16.1875 14.5819H8.75C6.32917 14.5819 4.26563 13.9137 2.55938 12.5772C0.853125 11.2408 0 9.62451 0 7.72838C0 5.83224 0.853125 4.21596 2.55938 2.87953C4.26563 1.54309 6.32917 0.874878 8.75 0.874878H16.1875V2.93093H8.75C7.05833 2.93093 5.61458 3.39925 4.41875 4.33589C3.22292 5.27254 2.625 6.40337 2.625 7.72838C2.625 9.05338 3.22292 10.1842 4.41875 11.1209C5.61458 12.0575 7.05833 12.5258 8.75 12.5258H16.1875V14.5819ZM10.7188 8.7564V6.70035H24.2812V8.7564H10.7188ZM18.8125 14.5819V12.5258H26.25C27.9417 12.5258 29.3854 12.0575 30.5813 11.1209C31.7771 10.1842 32.375 9.05338 32.375 7.72838C32.375 6.40337 31.7771 5.27254 30.5813 4.33589C29.3854 3.39925 27.9417 2.93093 26.25 2.93093H18.8125V0.874878H26.25C28.6708 0.874878 30.7344 1.54309 32.4406 2.87953C34.1469 4.21596 35 5.83224 35 7.72838C35 9.62451 34.1469 11.2408 32.4406 12.5772C30.7344 13.9137 28.6708 14.5819 26.25 14.5819H18.8125Z" fill="black"/>
</svg>
