<svg width="26" height="25" viewBox="0 0 26 25" fill="none" xmlns="http://www.w3.org/2000/svg">
<path d="M1.95 25C1.43 25 0.975 24.8026 0.585 24.4079C0.195 24.0132 0 23.5526 0 23.0263V6.94079C0 6.41447 0.195 5.95395 0.585 5.55921C0.975 5.16447 1.43 4.96711 1.95 4.96711H8.125V1.97368C8.125 1.44737 8.32 0.986842 8.71 0.592105C9.1 0.197368 9.555 0 10.075 0H15.925C16.445 0 16.9 0.197368 17.29 0.592105C17.68 0.986842 17.875 1.44737 17.875 1.97368V4.96711H24.05C24.57 4.96711 25.025 5.16447 25.415 5.55921C25.805 5.95395 26 6.41447 26 6.94079V23.0263C26 23.5526 25.805 24.0132 25.415 24.4079C25.025 24.8026 24.57 25 24.05 25H1.95ZM10.075 4.96711H15.925V1.97368H10.075V4.96711ZM24.05 16.7434H15.9575V18.7171H10.1075V16.7434H1.95V23.0263H24.05V16.7434ZM12.0575 16.7434H14.0075V14.7697H12.0575V16.7434ZM1.95 14.7697H10.1075V12.7961H15.9575V14.7697H24.05V6.94079H1.95V14.7697Z" fill="#FF0000" fill-opacity="0.8"/>
</svg>
