<svg width="48" height="48" viewBox="0 0 48 48" fill="none" xmlns="http://www.w3.org/2000/svg">
<path d="M18.7891 19.2714L20.1953 15.0274L16.4844 12.2964H21.0156L22.5 7.90476L23.9453 12.2964H28.5156L24.8047 15.0274L26.1719 19.2714L22.5 16.6512L18.7891 19.2714ZM13.2812 33V21.781C12.1094 20.6246 11.2695 19.3575 10.7617 17.9798C10.2539 16.602 10 15.2119 10 13.8095C10 10.4635 11.1979 7.65873 13.5938 5.39524C15.9896 3.13175 18.9583 2 22.5 2C26.0417 2 29.0104 3.13175 31.4063 5.39524C33.8021 7.65873 35 10.4635 35 13.8095C35 15.2119 34.7461 16.602 34.2383 17.9798C33.7305 19.3575 32.8906 20.6246 31.7188 21.781V33L22.5 30.0845L13.2812 33ZM22.5 23.4048C25.3385 23.4048 27.7409 22.476 29.707 20.6185C31.6732 18.7609 32.6562 16.4913 32.6562 13.8095C32.6562 11.1278 31.6732 8.85813 29.707 7.0006C27.7409 5.14306 25.3385 4.21429 22.5 4.21429C19.6615 4.21429 17.2591 5.14306 15.293 7.0006C13.3268 8.85813 12.3438 11.1278 12.3438 13.8095C12.3438 16.4913 13.3268 18.7609 15.293 20.6185C17.2591 22.476 19.6615 23.4048 22.5 23.4048ZM15.625 29.9L22.5 27.8702L29.375 29.9V23.5893C28.3333 24.3028 27.2135 24.8194 26.0156 25.1393C24.8177 25.4591 23.6458 25.619 22.5 25.619C21.3542 25.619 20.1823 25.4591 18.9844 25.1393C17.7865 24.8194 16.6667 24.3028 15.625 23.5893V29.9Z" fill="#FF0000"/>
</svg>
