<svg width="199" height="37" viewBox="0 0 199 37" fill="none" xmlns="http://www.w3.org/2000/svg">
<path d="M16.8033 29L15.3993 23.42H7.58729L6.18329 29H0.675293L8.34329 4.08804H14.7873L22.4193 29H16.8033ZM8.59529 19.496H14.3913L11.4753 8.01204L8.59529 19.496Z" fill="#141414"/>
<path d="M29.365 29.576C27.805 29.576 26.593 29.132 25.729 28.244C24.865 27.332 24.433 26.048 24.433 24.392V2.32404L29.545 1.74804V24.248C29.545 25.088 29.893 25.508 30.589 25.508C30.973 25.508 31.309 25.436 31.597 25.292L32.641 28.928C31.657 29.36 30.565 29.576 29.365 29.576Z" fill="#141414"/>
<path d="M51.2176 19.028C51.2176 19.268 51.1816 19.928 51.1096 21.008H39.1936C39.3616 22.736 39.8296 23.96 40.5976 24.68C41.3656 25.4 42.4096 25.76 43.7296 25.76C44.5456 25.76 45.3136 25.628 46.0336 25.364C46.7536 25.1 47.5336 24.68 48.3736 24.104L50.4976 26.984C48.3616 28.712 45.9496 29.576 43.2616 29.576C40.2616 29.576 37.9576 28.676 36.3496 26.876C34.7416 25.076 33.9376 22.64 33.9376 19.568C33.9376 17.624 34.2736 15.884 34.9456 14.348C35.6416 12.788 36.6376 11.564 37.9336 10.676C39.2536 9.78804 40.8136 9.34404 42.6136 9.34404C45.3256 9.34404 47.4376 10.196 48.9496 11.9C50.4616 13.604 51.2176 15.98 51.2176 19.028ZM46.1416 17.588C46.1416 14.42 45.0016 12.836 42.7216 12.836C41.6656 12.836 40.8376 13.232 40.2376 14.024C39.6616 14.792 39.3136 16.052 39.1936 17.804H46.1416V17.588Z" fill="#141414"/>
<path d="M65.2137 9.34404C67.6137 9.34404 69.3897 10.232 70.5417 12.008C71.7177 13.76 72.3057 16.232 72.3057 19.424C72.3057 21.368 72.0057 23.108 71.4057 24.644C70.8057 26.18 69.9297 27.392 68.7777 28.28C67.6497 29.144 66.3057 29.576 64.7457 29.576C62.8017 29.576 61.2297 28.892 60.0297 27.524V36.344L54.9177 36.92V9.92004H59.4177L59.6697 12.152C60.3897 11.216 61.2297 10.52 62.1897 10.064C63.1737 9.58404 64.1817 9.34404 65.2137 9.34404ZM63.2337 25.76C65.7297 25.76 66.9777 23.66 66.9777 19.46C66.9777 17.156 66.7017 15.524 66.1497 14.564C65.5977 13.604 64.7577 13.124 63.6297 13.124C62.9097 13.124 62.2377 13.352 61.6137 13.808C61.0137 14.24 60.4857 14.828 60.0297 15.572V23.888C60.8457 25.136 61.9137 25.76 63.2337 25.76Z" fill="#141414"/>
<path d="M87.019 9.34404C88.675 9.34404 89.971 9.86004 90.907 10.892C91.867 11.9 92.347 13.304 92.347 15.104V29H87.235V15.968C87.235 14.936 87.055 14.216 86.695 13.808C86.335 13.376 85.819 13.16 85.147 13.16C83.803 13.16 82.579 14.036 81.475 15.788V29H76.363V2.32404L81.475 1.78404V12.08C82.243 11.168 83.071 10.484 83.959 10.028C84.871 9.57204 85.891 9.34404 87.019 9.34404Z" fill="#141414"/>
<path d="M106.828 29.036C106.06 31.46 104.848 33.332 103.192 34.652C101.56 35.972 99.3398 36.728 96.5318 36.92L95.9918 33.248C97.8158 33.008 99.1478 32.576 99.9878 31.952C100.852 31.328 101.56 30.344 102.112 29H100.348L94.4078 9.92004H99.8438L103.66 25.688L107.692 9.92004H112.984L106.828 29.036Z" fill="#141414"/>
<path d="M131.915 3.51204C133.715 3.51204 135.275 3.77604 136.595 4.30404C137.939 4.80804 139.175 5.58804 140.303 6.64404L137.783 9.56004C136.895 8.84004 136.007 8.31204 135.119 7.97604C134.231 7.64004 133.283 7.47204 132.275 7.47204C131.171 7.47204 130.283 7.71204 129.611 8.19204C128.963 8.64804 128.639 9.30804 128.639 10.172C128.639 10.772 128.771 11.264 129.035 11.648C129.323 12.032 129.815 12.392 130.511 12.728C131.207 13.064 132.251 13.448 133.643 13.88C136.115 14.672 137.963 15.656 139.187 16.832C140.411 17.984 141.023 19.64 141.023 21.8C141.023 23.336 140.639 24.692 139.871 25.868C139.103 27.02 137.987 27.932 136.523 28.604C135.059 29.252 133.343 29.576 131.375 29.576C129.407 29.576 127.655 29.264 126.119 28.64C124.583 28.016 123.263 27.164 122.159 26.084L124.859 23.096C125.819 23.912 126.815 24.536 127.847 24.968C128.879 25.376 130.007 25.58 131.231 25.58C132.527 25.58 133.559 25.28 134.327 24.68C135.119 24.08 135.515 23.24 135.515 22.16C135.515 21.488 135.371 20.936 135.083 20.504C134.819 20.048 134.351 19.64 133.679 19.28C133.007 18.92 132.035 18.548 130.763 18.164C128.051 17.324 126.107 16.316 124.931 15.14C123.779 13.964 123.203 12.428 123.203 10.532C123.203 9.14004 123.575 7.91604 124.319 6.86004C125.063 5.78004 126.095 4.95204 127.415 4.37604C128.735 3.80004 130.235 3.51204 131.915 3.51204Z" fill="#141414"/>
<path d="M149.678 9.92004V29H144.566V9.92004H149.678ZM147.086 0.092041C147.998 0.092041 148.742 0.380041 149.318 0.956041C149.918 1.50804 150.218 2.21604 150.218 3.08004C150.218 3.94404 149.918 4.66404 149.318 5.24004C148.742 5.79204 147.998 6.06804 147.086 6.06804C146.174 6.06804 145.43 5.79204 144.854 5.24004C144.278 4.66404 143.99 3.94404 143.99 3.08004C143.99 2.21604 144.278 1.50804 144.854 0.956041C145.43 0.380041 146.174 0.092041 147.086 0.092041Z" fill="#141414"/>
<path d="M159.478 29.576C157.918 29.576 156.706 29.132 155.842 28.244C154.978 27.332 154.546 26.048 154.546 24.392V2.32404L159.658 1.74804V24.248C159.658 25.088 160.006 25.508 160.702 25.508C161.086 25.508 161.422 25.436 161.71 25.292L162.754 28.928C161.77 29.36 160.678 29.576 159.478 29.576Z" fill="#141414"/>
<path d="M180.867 9.92004L174.747 29H168.663L162.435 9.92004H167.979L171.759 25.004L175.611 9.92004H180.867Z" fill="#141414"/>
<path d="M197.185 23.708C197.185 24.452 197.293 25.004 197.509 25.364C197.725 25.7 198.085 25.952 198.589 26.12L197.509 29.504C196.381 29.408 195.457 29.144 194.737 28.712C194.041 28.28 193.501 27.608 193.117 26.696C191.869 28.616 189.961 29.576 187.393 29.576C185.497 29.576 183.985 29.036 182.857 27.956C181.753 26.852 181.201 25.424 181.201 23.672C181.201 21.584 181.957 19.988 183.469 18.884C184.981 17.78 187.153 17.228 189.985 17.228H192.181V16.292C192.181 15.116 191.917 14.3 191.389 13.844C190.861 13.388 189.985 13.16 188.761 13.16C187.417 13.16 185.737 13.496 183.721 14.168L182.569 10.748C184.945 9.81204 187.297 9.34404 189.625 9.34404C192.217 9.34404 194.125 9.90804 195.349 11.036C196.573 12.14 197.185 13.796 197.185 16.004V23.708ZM188.797 25.904C190.237 25.904 191.365 25.196 192.181 23.78V20.144H190.489C187.729 20.144 186.349 21.176 186.349 23.24C186.349 24.08 186.553 24.74 186.961 25.22C187.393 25.676 188.005 25.904 188.797 25.904Z" fill="#141414"/>
</svg>
